<?xml version="1.0" standalone="no"?>
<!DOCTYPE svg PUBLIC "-//W3C//DTD SVG 20010904//EN"
 "http://www.w3.org/TR/2001/REC-SVG-20010904/DTD/svg10.dtd">
<svg version="1.0" xmlns="http://www.w3.org/2000/svg"
 width="24.000000pt" height="24.000000pt" viewBox="0 0 24.000000 24.000000"
 preserveAspectRatio="xMidYMid meet">

<g transform="translate(0.000000,24.000000) scale(0.100000,-0.100000)"
fill="#000000" stroke="none">
<path d="M20 220 c-17 -17 -20 -33 -20 -103 0 -111 7 -117 123 -117 109 0 117
9 117 122 0 107 -11 118 -120 118 -67 0 -83 -3 -100 -20z m150 -20 c16 0 33
-77 26 -114 -8 -43 -35 -60 -83 -51 -65 12 -90 65 -60 125 13 25 71 53 95 44
8 -2 18 -4 22 -4z"/>
<path d="M76 154 c-17 -45 8 -84 41 -65 16 9 16 10 -4 11 -19 0 -23 6 -23 29
0 20 6 31 18 34 13 4 12 5 -4 6 -12 0 -25 -6 -28 -15z"/>
<path d="M140 126 c0 -19 5 -38 10 -41 6 -4 10 7 10 24 0 17 0 34 1 38 0 4 -4
9 -10 11 -7 2 -11 -11 -11 -32z"/>
</g>
</svg>
